# File created by Blade
# Date/Time:  Wed Jan 21 18:02:19 2015
# Frame Rate: 120.000 fps
#------------------------------------------------------
:FULLY-SPECIFIED
:DEGREES
771
root 18.940953 37.916459 -18.498517 -110.370769 21.549989 -145.922189
Spine -32.317992 18.157232 -4.452941
Head -30.075045 9.083919 22.126401
LeftShoulder -4.289156 -23.094932 5.340335
LeftArm -21.713095 9.429305 -77.676076
LeftForeArm -10.876920 0.000000 -0.909609
LeftHand 0.258246 -0.000000 1.892817
LeftHandThumb1 -26.253704 0.000000 33.147579
RightShoulder -8.415346 -13.424800 13.176831
RightArm 5.987271 -16.944043 62.653209
RightForeArm -22.849749 -0.000000 16.338082
RightHand -1.617528 -0.000000 7.186914
RightHandThumb1 -24.326973 -0.000000 -32.862282
LeftUpLeg -60.499677 28.006372 -1.585882
LeftLeg -3.170653 -0.000000 0.000000
LeftFoot -14.735009 29.281059 -12.194084
LeftToeBase 20.710320 -0.000000 -0.000000
RightUpLeg -0.644376 -5.062116 -3.507922
RightLeg 17.706738 -0.000000 -0.000000
RightFoot -13.036160 -28.140502 14.663683
RightToeBase 1.190516 -0.000000 -0.000000
772
root 18.955891 37.875100 -18.579961 -111.604001 21.955446 -146.598758
Spine -31.924182 17.745869 -4.621074
Head -29.057057 8.949844 22.396037
LeftShoulder -4.287458 -23.202149 5.315228
LeftArm -21.312975 9.799351 -77.732442
LeftForeArm -11.027389 -0.000000 -0.793656
LeftHand 0.156910 -0.000000 1.904599
LeftHandThumb1 -26.253704 0.000000 33.147579
RightShoulder -8.411398 -13.466765 13.163166
RightArm 5.898390 -17.195347 63.085735
RightForeArm -23.037104 -0.000000 16.574074
RightHand -1.481753 -0.000000 7.293379
RightHandThumb1 -24.326973 -0.000000 -32.862282
LeftUpLeg -59.305326 27.585942 -1.698509
LeftLeg -2.982071 -0.000000 0.000000
LeftFoot -14.927648 29.131571 -12.205752
LeftToeBase 20.533895 -0.000000 -0.000000
RightUpLeg -0.919418 -5.781249 -2.527608
RightLeg 16.628227 -0.000000 -0.000000
RightFoot -12.864038 -27.977324 14.636683
RightToeBase 0.829427 -0.000000 -0.000000
773
root 18.970804 37.832268 -18.657404 -112.874010 22.326842 -147.251484
Spine -31.437031 17.335637 -4.704836
Head -28.057016 8.812420 22.648895
LeftShoulder -4.355264 -23.419665 5.312041
LeftArm -20.964152 10.167913 -77.805520
LeftForeArm -11.401708 -0.000000 -0.687543
LeftHand 0.175255 -0.000000 2.240626
LeftHandThumb1 -26.253704 0.000000 33.147579
RightShoulder -8.412414 -13.545634 13.135561
RightArm 5.956279 -17.602061 63.446944
RightForeArm -23.140608 -0.000000 16.759935
RightHand -1.315752 0.000000 7.330480
RightHandThumb1 -24.326973 -0.000000 -32.862282
LeftUpLeg -58.073496 27.203390 -1.791440
LeftLeg -2.846679 -0.000000 0.000000
LeftFoot -15.209023 28.994933 -12.322311
LeftToeBase 20.615526 -0.000000 -0.000000
RightUpLeg -1.180353 -6.415936 -1.501180
RightLeg 15.514315 -0.000000 -0.000000
RightFoot -12.801756 -28.048534 14.778421
RightToeBase 1.049996 -0.000000 -0.000000
774
root 18.983677 37.790734 -18.732313 -114.045547 22.695522 -147.900051
Spine -31.108781 16.950559 -4.849484
Head -26.997625 8.644560 22.864889
LeftShoulder -4.408561 -23.465704 5.290091
LeftArm -20.463795 10.765970 -77.900694
LeftForeArm -11.817403 0.000000 -0.582870
LeftHand 0.253068 -0.000000 2.002702
LeftHandThumb1 -26.253704 0.000000 33.147579
RightShoulder -8.440218 -13.529540 13.081663
RightArm 5.902271 -17.970808 63.889025
RightForeArm -23.207210 -0.000000 16.985724
RightHand -1.234155 -0.000000 7.310119
RightHandThumb1 -24.326973 -0.000000 -32.862282
LeftUpLeg -56.944054 26.823283 -1.932253
LeftLeg -2.726952 -0.000000 0.000000
LeftFoot -15.402631 28.893379 -12.335900
LeftToeBase 20.578471 -0.000000 -0.000000
RightUpLeg -1.558002 -7.050693 -0.462013
RightLeg 14.371469 -0.000000 -0.000000
RightFoot -12.861810 -28.147789 15.049560
RightToeBase 1.162783 -0.000000 -0.000000
775
root 19.000748 37.747831 -18.801365 -115.273212 22.991061 -148.475566
Spine -30.649956 16.621256 -4.842345
Head -25.984480 8.494358 22.995975
LeftShoulder -4.438562 -23.617253 5.229369
LeftArm -20.015577 11.196246 -77.929501
LeftForeArm -12.215941 0.000000 -0.463410
LeftHand 0.208635 -0.000000 2.134190
LeftHandThumb1 -26.253704 0.000000 33.147579
RightShoulder -8.433299 -13.466313 12.997766
RightArm 5.818802 -18.291083 64.318104
RightForeArm -23.298106 -0.000000 17.260938
RightHand -1.200882 0.000000 7.089635
RightHandThumb1 -24.326973 -0.000000 -32.862282
LeftUpLeg -55.713458 26.459381 -1.886238
LeftLeg -2.598647 -0.000000 0.000000
LeftFoot -15.544234 28.874581 -12.213119
LeftToeBase 20.435269 -0.000000 -0.000000
RightUpLeg -1.815746 -7.468873 0.691476
RightLeg 13.096989 -0.000000 -0.000000
RightFoot -13.045415 -28.432213 15.419798
RightToeBase 1.512487 -0.000000 -0.000000
776
root 19.010753 37.704859 -18.868635 -116.475303 23.365515 -149.040680
Spine -30.218543 16.348929 -4.947090
Head -24.996658 8.286637 23.113055
LeftShoulder -4.466778 -23.757303 5.170723
LeftArm -19.509191 11.664823 -77.957256
LeftForeArm -12.479395 -0.000000 -0.317201
LeftHand 0.164003 0.000000 2.237726
LeftHandThumb1 -26.253704 0.000000 33.147579
RightShoulder -8.487883 -13.466241 12.983869
RightArm 5.912711 -18.947834 64.604752
RightForeArm -23.075526 -0.000000 17.416553
RightHand -1.193707 -0.000000 6.576850
RightHandThumb1 -24.326973 -0.000000 -32.862282
LeftUpLeg -54.488230 26.128751 -1.916268
LeftLeg -2.505853 -0.000000 0.000000
LeftFoot -15.744171 28.873547 -12.203361
LeftToeBase 20.576277 -0.000000 -0.000000
RightUpLeg -2.250569 -8.100855 1.727644
RightLeg 12.086472 -0.000000 -0.000000
RightFoot -13.174781 -28.337938 15.498425
RightToeBase 0.939385 -0.000000 -0.000000
777
root 19.023009 37.656909 -18.935776 -117.817407 23.674356 -149.677442
Spine -29.621236 15.999601 -4.954837
Head -24.042570 8.166639 23.177544
LeftShoulder -4.496210 -23.922158 5.065773
LeftArm -19.012495 12.105693 -77.943126
LeftForeArm -12.678465 -0.000000 -0.114831
LeftHand 0.153216 -0.000000 2.432436
LeftHandThumb1 -26.253704 0.000000 33.147579
RightShoulder -8.438255 -13.480722 12.977556
RightArm 5.949221 -19.077934 64.901203
RightForeArm -22.988476 0.000000 17.655161
RightHand -1.062171 -0.000000 6.541121
RightHandThumb1 -24.326973 -0.000000 -32.862282
LeftUpLeg -53.144406 25.739907 -1.884544
LeftLeg -2.434566 -0.000000 0.000000
LeftFoot -15.920104 28.861847 -12.086952
LeftToeBase 20.619523 -0.000000 -0.000000
RightUpLeg -2.505549 -8.626550 2.783175
RightLeg 10.954412 -0.000000 -0.000000
RightFoot -13.280342 -28.308892 15.622315
RightToeBase 1.332310 -0.000000 -0.000000
778
root 19.032663 37.612434 -18.994909 -119.078837 23.999899 -150.272275
Spine -29.104664 15.720711 -5.012012
Head -23.102416 8.002467 23.205614
LeftShoulder -4.516740 -24.059256 4.979515
LeftArm -18.461436 12.542998 -77.915567
LeftForeArm -12.918959 -0.000000 0.128778
LeftHand 0.006870 0.000000 2.412265
LeftHandThumb1 -26.253704 0.000000 33.147579
RightShoulder -8.433470 -13.465716 12.949636
RightArm 6.038672 -18.909906 65.272947
RightForeArm -22.890293 -0.000000 17.831664
RightHand -1.160667 -0.000000 6.949602
RightHandThumb1 -24.326973 -0.000000 -32.862282
LeftUpLeg -51.889460 25.377709 -1.872176
LeftLeg -2.331463 -0.000000 0.000000
LeftFoot -16.089290 28.872056 -12.036707
LeftToeBase 20.522674 -0.000000 -0.000000
RightUpLeg -2.863052 -9.034015 3.824921
RightLeg 9.865794 -0.000000 -0.000000
RightFoot -13.367795 -28.112244 15.722846
RightToeBase 1.641377 -0.000000 -0.000000
779
root 19.042491 37.574147 -19.046806 -120.277769 24.315985 -150.784690
Spine -28.611783 15.515528 -5.050904
Head -22.189978 7.841649 23.244817
LeftShoulder -4.532883 -24.155891 4.892168
LeftArm -17.822971 12.881133 -77.850846
LeftForeArm -13.098882 -0.000000 0.267620
LeftHand 0.189617 -0.000000 2.368967
LeftHandThumb1 -26.253704 0.000000 33.147579
RightShoulder -8.419621 -13.415604 12.973702
RightArm 6.100242 -19.008286 65.539524
RightForeArm -22.791367 -0.000000 17.953481
RightHand -0.933351 -0.000000 6.962055
RightHandThumb1 -24.326973 -0.000000 -32.862282
LeftUpLeg -50.716457 25.125824 -1.874748
LeftLeg -2.207173 -0.000000 0.000000
LeftFoot -16.317936 28.827069 -12.082583
LeftToeBase 20.588588 -0.000000 -0.000000
RightUpLeg -3.258845 -9.337300 4.910666
RightLeg 8.758224 -0.000000 -0.000000
RightFoot -13.254539 -27.717333 15.758082
RightToeBase 1.324636 -0.000000 -0.000000
780
root 19.045919 37.530063 -19.103802 -121.576161 24.652801 -151.339413
Spine -28.001794 15.315007 -5.085116
Head -21.314423 7.721149 23.233436
LeftShoulder -4.559929 -24.206093 4.736909
LeftArm -17.056654 13.186526 -77.722534
LeftForeArm -13.400987 -0.000000 0.427398
LeftHand 0.170512 -0.000000 2.422404
LeftHandThumb1 -26.253704 0.000000 33.147579
RightShoulder -8.440136 -13.495041 13.039085
RightArm 6.387544 -19.246680 65.638138
RightForeArm -22.601497 0.000000 18.046798
RightHand -0.917217 -0.000000 6.926243
RightHandThumb1 -24.326973 -0.000000 -32.862282
LeftUpLeg -49.388414 24.772579 -1.795270
LeftLeg -2.113264 -0.000000 0.000000
LeftFoot -16.568835 28.863742 -12.146593
LeftToeBase 20.462174 -0.000000 -0.000000
RightUpLeg -3.546366 -9.416321 5.889557
RightLeg 7.653623 -0.000000 -0.000000
RightFoot -13.084449 -27.328506 15.635597
RightToeBase 1.335085 -0.000000 -0.000000
781
root 19.048268 37.484179 -19.155784 -122.935637 24.915601 -152.008186
Spine -27.347272 14.975218 -5.076354
Head -20.441991 7.582276 23.166104
LeftShoulder -4.620665 -24.269647 4.582572
LeftArm -16.288110 13.656794 -77.615745
LeftForeArm -13.743988 -0.000000 0.564108
LeftHand 0.098903 -0.000000 2.246001
LeftHandThumb1 -26.253704 0.000000 33.147579
RightShoulder -8.395392 -13.474902 13.042938
RightArm 6.542375 -19.445253 65.802557
RightForeArm -22.589294 -0.000000 18.223115
RightHand -0.822587 -0.000000 6.961688
RightHandThumb1 -24.326973 -0.000000 -32.862282
LeftUpLeg -48.114016 24.353028 -1.785644
LeftLeg -1.976778 -0.000000 0.000000
LeftFoot -16.660991 28.841580 -12.035620
LeftToeBase 20.334435 -0.000000 -0.000000
RightUpLeg -3.797890 -9.391670 6.830719
RightLeg 6.558532 -0.000000 -0.000000
RightFoot -12.979545 -26.942500 15.512872
RightToeBase 1.345843 -0.000000 -0.000000
782
root 19.044965 37.440150 -19.200784 -124.249311 25.201000 -152.656892
Spine -26.732769 14.710808 -5.120270
Head -19.605179 7.433660 23.073872
LeftShoulder -4.655266 -24.296635 4.414189
LeftArm -15.381299 14.317556 -77.534242
LeftForeArm -14.245307 -0.000000 0.559588
LeftHand 0.175392 -0.000000 2.356347
LeftHandThumb1 -26.253704 0.000000 33.147579
RightShoulder -8.429705 -13.542112 13.033097
RightArm 6.912205 -19.761258 65.910516
RightForeArm -22.543149 0.000000 18.251754
RightHand -0.688531 0.000000 6.944361
RightHandThumb1 -24.326973 -0.000000 -32.862282
LeftUpLeg -46.945497 24.008523 -1.866280
LeftLeg -1.808993 -0.000000 0.000000
LeftFoot -16.868510 28.758315 -12.104324
LeftToeBase 20.583571 -0.000000 -0.000000
RightUpLeg -4.129583 -9.211066 7.717997
RightLeg 5.567597 -0.000000 -0.000000
RightFoot -12.948026 -26.439197 15.346827
RightToeBase 1.462895 -0.000000 -0.000000
